<svg xmlns="http://www.w3.org/2000/svg" width="115.74" height="30.15" viewBox="0 0 115.74 30.15">
  <path id="logo" d="M14.07,0,6.99-9.3V0H1.86V-21.06H6.99v9.24l7.02-9.24h6.03L11.88-10.74,20.34,0Zm7.68-8.4a10,10,0,0,1,.975-4.53,7.273,7.273,0,0,1,2.655-3,6.931,6.931,0,0,1,3.75-1.05,6.442,6.442,0,0,1,3.1.72,5.3,5.3,0,0,1,2.055,1.89v-2.37h5.13V0H34.29V-2.37A5.54,5.54,0,0,1,32.205-.48,6.442,6.442,0,0,1,29.1.24,6.807,6.807,0,0,1,25.38-.825a7.359,7.359,0,0,1-2.655-3.03A10.1,10.1,0,0,1,21.75-8.4Zm12.54.03a4.194,4.194,0,0,0-1.065-3.03,3.46,3.46,0,0,0-2.595-1.11,3.483,3.483,0,0,0-2.6,1.1A4.141,4.141,0,0,0,26.97-8.4a4.248,4.248,0,0,0,1.065,3.045,3.438,3.438,0,0,0,2.6,1.125,3.46,3.46,0,0,0,2.595-1.11A4.194,4.194,0,0,0,34.29-8.37Zm25.95-8.37L49.74,7.95H44.22L48.06-.57,41.25-16.74h5.73L50.85-6.27l3.84-10.47Zm.84,8.34a10,10,0,0,1,.975-4.53,7.273,7.273,0,0,1,2.655-3,6.931,6.931,0,0,1,3.75-1.05,6.587,6.587,0,0,1,3.015.69,5.494,5.494,0,0,1,2.145,1.86V-22.2h5.13V0H73.62V-2.4A5.226,5.226,0,0,1,71.565-.48,6.442,6.442,0,0,1,68.46.24,6.859,6.859,0,0,1,64.71-.825a7.359,7.359,0,0,1-2.655-3.03A10.1,10.1,0,0,1,61.08-8.4Zm12.54.03a4.194,4.194,0,0,0-1.065-3.03,3.46,3.46,0,0,0-2.6-1.11,3.483,3.483,0,0,0-2.6,1.1A4.141,4.141,0,0,0,66.3-8.4a4.248,4.248,0,0,0,1.065,3.045,3.438,3.438,0,0,0,2.6,1.125,3.46,3.46,0,0,0,2.6-1.11A4.194,4.194,0,0,0,73.62-8.37Zm24.63-.27a13.1,13.1,0,0,1-.09,1.5H86.55a3.488,3.488,0,0,0,1,2.385,3.07,3.07,0,0,0,2.175.825A2.7,2.7,0,0,0,92.4-5.55h5.46a7.492,7.492,0,0,1-1.515,2.97A7.585,7.585,0,0,1,93.6-.51a8.817,8.817,0,0,1-3.69.75A8.979,8.979,0,0,1,85.53-.81a7.469,7.469,0,0,1-3-3,9.262,9.262,0,0,1-1.08-4.56,9.367,9.367,0,0,1,1.065-4.56,7.372,7.372,0,0,1,2.985-3,9.042,9.042,0,0,1,4.41-1.05,8.952,8.952,0,0,1,4.32,1.02,7.324,7.324,0,0,1,2.955,2.91A8.833,8.833,0,0,1,98.25-8.64ZM93-9.99a2.638,2.638,0,0,0-.9-2.1,3.313,3.313,0,0,0-2.25-.78,3.249,3.249,0,0,0-2.175.75,3.331,3.331,0,0,0-1.1,2.13Zm18.15-6.93a6.075,6.075,0,0,1,4.7,1.9A7.43,7.43,0,0,1,117.6-9.78V0h-5.1V-9.09a3.674,3.674,0,0,0-.87-2.61,3.051,3.051,0,0,0-2.34-.93,3.051,3.051,0,0,0-2.34.93,3.674,3.674,0,0,0-.87,2.61V0h-5.13V-16.74h5.13v2.22a5.412,5.412,0,0,1,2.1-1.755A6.676,6.676,0,0,1,111.15-16.92Z" transform="translate(-1.86 22.2)" fill="#fff"/>
</svg>
